<svg width="110" height="10" viewBox="0 0 110 10" fill="none" xmlns="http://www.w3.org/2000/svg">
<g clip-path="url(#clip0_372_128)">
<path d="M4.42889 9.84983C1.86808 9.84983 0 7.70652 0 4.89167C0 2.07682 1.86808 0.152344 4.42889 0.152344H9.34041V1.04057H4.42889C2.39231 1.04057 0.902837 2.62177 0.902837 4.93672C0.902837 7.25168 2.39231 8.9423 4.42889 8.9423H9.34041V9.83052H4.42889V9.85198V9.84983Z" fill="white"/>
<path d="M22.3109 9.84982L20.7154 7.08003L20.2536 6.30122L17.3162 1.25724L12.3423 9.84982H11.3354L16.896 0.30251C17 0.107273 17.1269 0 17.337 0C17.5471 0 17.6511 0.107273 17.7572 0.30251L23.3199 9.84767H22.313L22.3109 9.84982Z" fill="white"/>
<path d="M25.6476 9.84978V8.96156H32.6165C33.8334 8.96156 34.4638 8.18276 34.4638 7.12075C34.4638 6.05875 33.8126 5.325 32.6165 5.325H28.1252C26.488 5.325 25.502 4.24369 25.502 2.72685C25.502 1.21 26.4256 0.150146 28.146 0.150146H34.8403V1.03837H28.146C27.033 1.03837 26.4048 1.77426 26.4048 2.76976C26.4048 3.76525 27.0559 4.47969 28.1252 4.47969H32.6165C34.3577 4.47969 35.2813 5.36791 35.2813 7.14221C35.2813 8.9165 34.4201 9.84764 32.6165 9.84764H25.6476V9.84978Z" fill="white"/>
<path d="M38.0316 9.84978V8.96156H45.0005C46.2175 8.96156 46.8478 8.18276 46.8478 7.12075C46.8478 6.05875 46.1967 5.325 45.0005 5.325H40.5092C38.872 5.325 37.886 4.24369 37.886 2.72685C37.886 1.21 38.8096 0.150146 40.53 0.150146H47.2243V1.03837H40.5071C39.3942 1.03837 38.7659 1.77426 38.7659 2.76976C38.7659 3.76525 39.4171 4.47969 40.4863 4.47969H44.9776C46.7188 4.47969 47.6424 5.36791 47.6424 7.14221C47.6424 8.9165 46.7812 9.84764 44.9776 9.84764H38.0295L38.0316 9.84978Z" fill="white"/>
<path d="M50.4778 9.84983V0.152344H51.3598V9.84983H50.4778Z" fill="white"/>
<path d="M55.1584 1.4502V9.84968H54.3408V0.628488C54.3408 0.259468 54.5301 0.0449219 54.8234 0.0449219C55.1168 0.0449219 55.1168 0.109286 55.2437 0.283068L62.9261 8.55168V0.152195H63.7436V9.43776C63.7436 9.80678 63.5543 9.99987 63.2818 9.99987C63.0093 9.99987 62.9677 9.91405 62.82 9.76172L55.1584 1.4502Z" fill="white"/>
<path d="M70.8144 9.84983C68.2744 9.84983 66.3855 7.70652 66.3855 4.89382C66.3855 2.08111 68.2536 0.152344 70.8144 0.152344H73.0174C75.6406 0.152344 77.4671 2.07897 77.4671 4.89382C77.4671 7.70866 75.6198 9.84983 73.0174 9.84983H70.8144ZM73.0195 8.96161C75.0977 8.96161 76.5871 7.25168 76.5871 4.95603C76.5871 2.66039 75.1185 1.05987 73.0195 1.05987H70.8165C68.7799 1.05987 67.2904 2.64108 67.2904 4.95603C67.2904 7.27099 68.7799 8.96161 70.8165 8.96161H73.0195Z" fill="white"/>
<path d="M82.1061 7.31604V4.93458C82.0853 4.93458 86.6806 4.93458 86.6806 4.93458C87.4773 4.93458 87.9599 4.47974 87.9599 3.7653C87.9599 3.05086 87.4773 2.59602 86.6806 2.59602H82.2517V9.84769H79.8594V0.152344H86.6598C88.9481 0.152344 90.2898 1.53831 90.2898 3.68163C90.2898 5.82494 88.946 7.29673 86.6598 7.29673H82.0853C82.0853 7.31819 82.1061 7.31819 82.1061 7.31819V7.31604Z" fill="#0075CD"/>
<path d="M92.3286 9.84983V0.152344H94.7209V9.84983H92.3286Z" fill="#0075CD"/>
<path d="M106.117 9.84984L102.948 6.34415L99.8009 9.84984H96.7158L101.5 4.7844L97.0923 0.152344H100.367L103.158 3.22679L105.909 0.152344H108.994L104.565 4.80585L109.414 9.87129H106.119V9.84984H106.117Z" fill="#0075CD"/>
<path d="M86.9761 4.93457H82.2539V7.29458H86.9761V4.93457Z" fill="url(#paint0_linear_372_128)"/>
<path d="M19.1634 6.49431L17.3162 4.6106L15.4897 6.49431C15.0279 6.9706 15.0279 7.7065 15.4897 8.18279C15.9099 8.57326 16.6026 8.61617 17.0852 8.26861L16.7066 9.54516H17.9652L17.5658 8.26861C17.7759 8.42094 18.0276 8.50676 18.3001 8.50676C18.5726 8.50676 18.9512 8.39948 19.1614 8.16134C19.6648 7.7065 19.6648 6.9706 19.1614 6.49431H19.1634Z" fill="url(#paint1_linear_372_128)"/>
</g>
<defs>
<linearGradient id="paint0_linear_372_128" x1="82.2539" y1="6.11457" x2="86.9553" y2="6.11457" gradientUnits="userSpaceOnUse">
<stop stop-color="#0D3A5E"/>
<stop offset="1" stop-color="#0075CD"/>
</linearGradient>
<linearGradient id="paint1_linear_372_128" x1="17.3411" y1="9.54516" x2="17.3411" y2="4.58914" gradientUnits="userSpaceOnUse">
<stop stop-color="#0D3A5E"/>
<stop offset="1" stop-color="#0075CD"/>
</linearGradient>
<clipPath id="clip0_372_128">
<rect width="109.412" height="10" fill="white"/>
</clipPath>
</defs>
</svg>
